# This file uses centimeters as units for non-parametric coordinates.

mtllib turbo.mtl
g default
v -0.759837 -0.000000 -0.000000
v 0.759837 -0.000000 0.000000
v -0.379957 -2.350690 1.357172
v -0.759837 -1.970809 1.137848
v -0.379957 -2.350690 -1.357171
v -0.759837 -1.970810 -1.137847
v -0.379957 -0.000000 -2.714343
v -0.759837 -0.000000 -2.275695
v -0.379957 2.350690 -1.357172
v -0.759837 1.970809 -1.137848
v -0.379957 2.350690 1.357171
v -0.759837 1.970810 1.137847
v -0.379957 -0.000000 2.714343
v -0.759837 -0.000000 2.275695
v 0.379957 -2.350690 1.357172
v 0.759837 -1.970809 1.137848
v 0.379957 -2.350690 -1.357171
v 0.759837 -1.970810 -1.137847
v 0.379957 -0.000000 -2.714343
v 0.759837 -0.000000 -2.275695
v 0.379957 2.350690 -1.357172
v 0.759837 1.970809 -1.137848
v 0.379957 2.350690 1.357171
v 0.759837 1.970810 1.137847
v 0.379957 -0.000000 2.714343
v 0.759837 -0.000000 2.275695
v -0.880446 -5.447088 3.144879
v -1.760717 -4.566817 2.636655
v -0.880446 -5.447090 -3.144877
v -1.760717 -4.566819 -2.636653
v -0.880446 -0.000001 -6.289756
v -1.760717 -0.000001 -5.273307
v -0.880446 5.447088 -3.144878
v -1.760717 4.566818 -2.636654
v -0.880446 5.447088 3.144878
v -1.760717 4.566818 2.636653
v -0.880446 0.000000 6.289756
v -1.760717 -0.000000 5.273307
v 0.880446 -5.447088 3.144879
v 1.760717 -4.566817 2.636655
v 0.880446 -5.447089 -3.144877
v 1.760717 -4.566819 -2.636653
v 0.880446 -0.000001 -6.289756
v 1.760717 -0.000001 -5.273307
v 0.880446 5.447088 -3.144878
v 1.760717 4.566818 -2.636654
v 0.880446 5.447089 3.144878
v 1.760717 4.566818 2.636653
v 0.880446 0.000000 6.289756
v 1.760717 -0.000000 5.273307
v 0.000000 -4.071852 2.350886
v 0.000000 -4.071854 -2.350885
v 0.000000 -0.000000 4.701770
v 0.000000 -0.000001 -4.701770
v 0.000000 4.071853 -2.350886
v 0.000000 4.071853 2.350885
vt 0.006590 0.429584
vt 0.171430 0.091446
vt 0.184787 0.114270
vt 0.323373 0.114270
vt 0.336729 0.091446
vt 0.088780 0.232680
vt 0.115493 0.232680
vt 0.392666 0.232679
vt 0.419379 0.232679
vt 0.323373 0.351089
vt 0.336729 0.373913
vt 0.184787 0.351089
vt 0.171430 0.373913
vt 0.590330 0.456599
vt 0.668906 0.624123
vt 0.682263 0.646947
vt 0.612970 0.765357
vt 0.586257 0.765357
vt 0.834206 0.624123
vt 0.820849 0.646947
vt 0.916855 0.765356
vt 0.890142 0.765356
vt 0.834206 0.906590
vt 0.820849 0.883766
vt 0.668906 0.906590
vt 0.682263 0.883766
vt 0.103880 0.429584
vt 0.006590 0.456599
vt 0.201170 0.429584
vt 0.103880 0.456599
vt 0.298460 0.429584
vt 0.201170 0.456599
vt 0.395750 0.429584
vt 0.298460 0.456599
vt 0.493040 0.429584
vt 0.395750 0.456599
vt 0.590330 0.429584
vt 0.493040 0.456599
vt 0.254080 0.232680
vt 0.751556 0.765357
vt 0.619608 0.010592
vt 0.639869 0.046534
vt 0.850098 0.046534
vt 0.870359 0.010591
vt 0.494232 0.233003
vt 0.534755 0.233003
vt 0.955212 0.233003
vt 0.995734 0.233003
vt 0.850098 0.419472
vt 0.870359 0.455415
vt 0.639869 0.419472
vt 0.619608 0.455415
vt 0.129712 0.543646
vt 0.149974 0.579589
vt 0.044859 0.766058
vt 0.004337 0.766058
vt 0.380463 0.543646
vt 0.360202 0.579589
vt 0.505839 0.766058
vt 0.465317 0.766058
vt 0.380464 0.988470
vt 0.360202 0.952527
vt 0.129712 0.988470
vt 0.149974 0.952527
vt 0.006335 0.477624
vt 0.170890 0.477624
vt 0.170890 0.523316
vt 0.006335 0.523316
vt 0.335445 0.477624
vt 0.335445 0.523316
vt 0.500000 0.477624
vt 0.500000 0.523316
vt 0.664555 0.477624
vt 0.664555 0.523316
vt 0.829110 0.477624
vt 0.829110 0.523316
vt 0.993665 0.477624
vt 0.993665 0.523316
vt 0.651262 0.066744
vt 0.838705 0.066744
vt 0.557540 0.233003
vt 0.932427 0.233003
vt 0.838705 0.399262
vt 0.651262 0.399262
vt 0.161366 0.599799
vt 0.067644 0.766058
vt 0.348810 0.599799
vt 0.442531 0.766058
vt 0.348810 0.932317
vt 0.161366 0.932317
vn -0.707107 -0.707107 0.000000
vn -0.707107 -0.707107 0.000000
vn -0.707107 -0.707107 0.000000
vn -0.707107 -0.707107 0.000000
vn -0.707107 -0.353553 0.612372
vn -0.707107 -0.353553 0.612373
vn -0.707107 -0.353553 0.612373
vn -0.707107 -0.353553 0.612372
vn -0.707107 -0.353553 -0.612372
vn -0.707107 -0.353553 -0.612372
vn -0.707107 -0.353553 -0.612372
vn -0.707107 -0.353553 -0.612372
vn -0.707107 0.353553 -0.612373
vn -0.707107 0.353553 -0.612373
vn -0.707107 0.353553 -0.612372
vn -0.707107 0.353553 -0.612372
vn -0.707107 0.707107 0.000000
vn -0.707107 0.707107 0.000000
vn -0.707107 0.707107 0.000000
vn -0.707107 0.707107 0.000000
vn -0.707107 0.353553 0.612372
vn -0.707107 0.353554 0.612372
vn -0.707107 0.353554 0.612372
vn -0.707107 0.353553 0.612372
vn 0.707107 -0.353553 0.612372
vn 0.707107 -0.353553 0.612372
vn 0.707107 -0.353553 0.612373
vn 0.707107 -0.353553 0.612372
vn 0.707107 -0.707107 0.000000
vn 0.707107 -0.707107 0.000000
vn 0.707107 -0.707107 0.000000
vn 0.707107 -0.707107 0.000000
vn 0.707107 -0.353554 -0.612372
vn 0.707107 -0.353554 -0.612372
vn 0.707107 -0.353554 -0.612372
vn 0.707107 -0.353554 -0.612372
vn 0.707107 0.353553 -0.612372
vn 0.707107 0.353553 -0.612372
vn 0.707107 0.353553 -0.612372
vn 0.707107 0.353553 -0.612372
vn 0.707107 0.707107 -0.000000
vn 0.707107 0.707107 -0.000000
vn 0.707107 0.707107 -0.000000
vn 0.707107 0.707107 -0.000000
vn 0.707107 0.353553 0.612372
vn 0.707107 0.353553 0.612373
vn 0.707107 0.353553 0.612372
vn 0.707107 0.353553 0.612372
vn 0.000000 -1.000000 0.000000
vn 0.000000 -1.000000 0.000000
vn 0.000000 -1.000000 0.000000
vn 0.000000 -1.000000 0.000000
vn 0.000000 -0.500000 -0.866025
vn 0.000000 -0.500000 -0.866025
vn 0.000000 -0.500000 -0.866025
vn 0.000000 -0.500000 -0.866025
vn 0.000000 0.500000 -0.866026
vn 0.000000 0.500000 -0.866026
vn 0.000000 0.500000 -0.866026
vn 0.000000 0.500000 -0.866026
vn -0.000000 1.000000 0.000000
vn -0.000000 1.000000 0.000000
vn -0.000000 1.000000 0.000000
vn -0.000000 1.000000 0.000000
vn -0.000000 0.500000 0.866025
vn -0.000000 0.500000 0.866025
vn -0.000000 0.500000 0.866025
vn -0.000000 0.500000 0.866025
vn 0.000000 -0.500000 0.866026
vn 0.000000 -0.500000 0.866026
vn 0.000000 -0.500000 0.866026
vn 0.000000 -0.500000 0.866026
vn -1.000000 0.000000 0.000000
vn -1.000000 0.000000 -0.000000
vn -1.000000 -0.000000 -0.000000
vn -1.000000 -0.000000 0.000000
vn -1.000000 -0.000000 0.000000
vn -1.000000 -0.000000 -0.000000
vn -1.000000 0.000000 -0.000000
vn 1.000000 0.000000 -0.000000
vn 1.000000 0.000000 0.000000
vn 1.000000 0.000000 -0.000000
vn 1.000000 0.000000 0.000000
vn 1.000000 -0.000000 0.000000
vn 1.000000 -0.000000 -0.000000
vn 1.000000 0.000000 -0.000000
vn -0.707107 -0.707107 0.000000
vn -0.707107 -0.707107 0.000000
vn -0.707107 -0.707107 0.000000
vn -0.707107 -0.707107 0.000000
vn -0.707107 -0.353553 0.612372
vn -0.707107 -0.353553 0.612372
vn -0.707107 -0.353553 0.612372
vn -0.707107 -0.353553 0.612372
vn -0.707107 -0.353553 -0.612372
vn -0.707107 -0.353553 -0.612372
vn -0.707107 -0.353553 -0.612372
vn -0.707107 -0.353553 -0.612372
vn -0.707106 0.353553 -0.612373
vn -0.707107 0.353553 -0.612373
vn -0.707106 0.353553 -0.612373
vn -0.707107 0.353553 -0.612373
vn -0.707107 0.707107 0.000000
vn -0.707107 0.707107 0.000000
vn -0.707107 0.707107 0.000000
vn -0.707107 0.707107 0.000000
vn -0.707107 0.353553 0.612372
vn -0.707107 0.353553 0.612372
vn -0.707107 0.353553 0.612372
vn -0.707107 0.353553 0.612372
vn 0.707107 -0.353553 0.612372
vn 0.707107 -0.353553 0.612372
vn 0.707107 -0.353553 0.612372
vn 0.707107 -0.353553 0.612372
vn 0.707107 -0.707107 0.000000
vn 0.707107 -0.707107 0.000000
vn 0.707107 -0.707107 0.000000
vn 0.707107 -0.707107 0.000000
vn 0.707107 -0.353553 -0.612372
vn 0.707107 -0.353553 -0.612372
vn 0.707107 -0.353553 -0.612372
vn 0.707107 -0.353553 -0.612372
vn 0.707107 0.353553 -0.612373
vn 0.707106 0.353553 -0.612373
vn 0.707106 0.353553 -0.612373
vn 0.707106 0.353553 -0.612373
vn 0.707107 0.707107 0.000000
vn 0.707107 0.707107 0.000000
vn 0.707107 0.707107 0.000000
vn 0.707107 0.707107 0.000000
vn 0.707107 0.353553 0.612372
vn 0.707107 0.353553 0.612372
vn 0.707107 0.353553 0.612372
vn 0.707107 0.353553 0.612372
vn 0.000000 -1.000000 0.000000
vn 0.000000 -1.000000 0.000000
vn 0.000000 -1.000000 0.000000
vn 0.000000 -1.000000 0.000000
vn 0.000000 -0.500000 -0.866025
vn 0.000000 -0.500000 -0.866025
vn 0.000000 -0.500000 -0.866025
vn 0.000000 -0.500000 -0.866025
vn 0.000000 0.500000 -0.866026
vn 0.000000 0.500000 -0.866026
vn 0.000000 0.500000 -0.866026
vn 0.000000 0.500000 -0.866026
vn -0.000000 1.000000 0.000000
vn -0.000000 1.000000 0.000000
vn -0.000000 1.000000 0.000000
vn -0.000000 1.000000 0.000000
vn -0.000000 0.500000 0.866025
vn -0.000000 0.500000 0.866025
vn -0.000000 0.500000 0.866025
vn -0.000000 0.500000 0.866025
vn 0.000000 -0.500000 0.866025
vn 0.000000 -0.500000 0.866026
vn 0.000000 -0.500000 0.866026
vn 0.000000 -0.500000 0.866025
vn -0.270626 0.962685 -0.000000
vn -0.270626 0.962685 -0.000000
vn -0.270626 0.962685 -0.000000
vn -0.270626 0.962685 -0.000000
vn -0.270626 0.481342 -0.833709
vn -0.270626 0.481342 -0.833709
vn -0.270626 0.481342 -0.833710
vn -0.270626 0.481342 -0.833709
vn -0.270626 0.481342 0.833709
vn -0.270626 0.481342 0.833709
vn -0.270626 0.481342 0.833709
vn -0.270626 0.481342 0.833709
vn -0.270626 -0.481342 0.833709
vn -0.270626 -0.481342 0.833709
vn -0.270626 -0.481342 0.833709
vn -0.270626 -0.481342 0.833709
vn -0.270626 -0.962685 0.000000
vn -0.270626 -0.962685 0.000000
vn -0.270626 -0.962685 0.000000
vn -0.270626 -0.962685 0.000000
vn -0.270626 -0.481342 -0.833710
vn -0.270626 -0.481342 -0.833709
vn -0.270626 -0.481342 -0.833709
vn -0.270626 -0.481342 -0.833710
vn 0.270626 0.481342 -0.833709
vn 0.270626 0.481342 -0.833709
vn 0.270626 0.481342 -0.833709
vn 0.270626 0.481342 -0.833709
vn 0.270626 0.962685 -0.000000
vn 0.270626 0.962685 -0.000000
vn 0.270626 0.962685 -0.000000
vn 0.270626 0.962685 -0.000000
vn 0.270626 0.481342 0.833709
vn 0.270626 0.481342 0.833709
vn 0.270626 0.481342 0.833709
vn 0.270626 0.481342 0.833709
vn 0.270626 -0.481342 0.833710
vn 0.270626 -0.481342 0.833710
vn 0.270626 -0.481342 0.833709
vn 0.270626 -0.481342 0.833710
vn 0.270626 -0.962685 0.000000
vn 0.270626 -0.962685 0.000000
vn 0.270626 -0.962685 0.000000
vn 0.270626 -0.962685 0.000000
vn 0.270626 -0.481342 -0.833709
vn 0.270626 -0.481342 -0.833709
vn 0.270626 -0.481342 -0.833709
vn 0.270626 -0.481342 -0.833709
s off
g turbo_default
usemtl lambert2SG
f 3/2/1 4/3/2 6/4/3 5/5/4
f 4/3/5 3/2/6 13/6/7 14/7/8
f 5/5/9 6/4/10 8/8/11 7/9/12
f 7/9/13 8/8/14 10/10/15 9/11/16
f 9/11/17 10/10/18 12/12/19 11/13/20
f 11/13/21 12/12/22 14/7/23 13/6/24
f 15/15/25 16/16/26 26/17/27 25/18/28
f 16/16/29 15/15/30 17/19/31 18/20/32
f 18/20/33 17/19/34 19/21/35 20/22/36
f 20/22/37 19/21/38 21/23/39 22/24/40
f 22/24/41 21/23/42 23/25/43 24/26/44
f 24/26/45 23/25/46 25/18/47 26/17/48
f 3/1/49 5/27/50 17/30/51 15/28/52
f 5/27/53 7/29/54 19/32/55 17/30/56
f 7/29/57 9/31/58 21/34/59 19/32/60
f 9/31/61 11/33/62 23/36/63 21/34/64
f 11/33/65 13/35/66 25/38/67 23/36/68
f 13/35/69 3/37/70 15/14/71 25/38/72
s 1
f 6/4/73 4/3/74 1/39/75
f 8/8/76 6/4/73 1/39/75
f 10/10/77 8/8/76 1/39/75
f 12/12/78 10/10/77 1/39/75
f 14/7/79 12/12/78 1/39/75
f 4/3/74 14/7/79 1/39/75
s 2
f 16/16/80 18/20/81 2/40/82
f 18/20/81 20/22/83 2/40/82
f 20/22/83 22/24/84 2/40/82
f 22/24/84 24/26/85 2/40/82
f 24/26/85 26/17/86 2/40/82
f 26/17/86 16/16/80 2/40/82
s off
f 27/41/87 28/42/88 30/43/89 29/44/90
f 28/42/91 27/41/92 37/45/93 38/46/94
f 29/44/95 30/43/96 32/47/97 31/48/98
f 31/48/99 32/47/100 34/49/101 33/50/102
f 33/50/103 34/49/104 36/51/105 35/52/106
f 35/52/107 36/51/108 38/46/109 37/45/110
f 39/53/111 40/54/112 50/55/113 49/56/114
f 40/54/115 39/53/116 41/57/117 42/58/118
f 42/58/119 41/57/120 43/59/121 44/60/122
f 44/60/123 43/59/124 45/61/125 46/62/126
f 46/62/127 45/61/128 47/63/129 48/64/130
f 48/64/131 47/63/132 49/56/133 50/55/134
f 27/65/135 29/66/136 41/67/137 39/68/138
f 29/66/139 31/69/140 43/70/141 41/67/142
f 31/69/143 33/71/144 45/72/145 43/70/146
f 33/71/147 35/73/148 47/74/149 45/72/150
f 35/73/151 37/75/152 49/76/153 47/74/154
f 37/75/155 27/77/156 39/78/157 49/76/158
f 30/43/159 28/42/160 51/79/161 52/80/162
f 28/42/163 38/46/164 53/81/165 51/79/166
f 32/47/167 30/43/168 52/80/169 54/82/170
f 34/49/171 32/47/172 54/82/173 55/83/174
f 36/51/175 34/49/176 55/83/177 56/84/178
f 38/46/179 36/51/180 56/84/181 53/81/182
f 50/55/183 40/54/184 51/85/185 53/86/186
f 40/54/187 42/58/188 52/87/189 51/85/190
f 42/58/191 44/60/192 54/88/193 52/87/194
f 44/60/195 46/62/196 55/89/197 54/88/198
f 46/62/199 48/64/200 56/90/201 55/89/202
f 48/64/203 50/55/204 53/86/205 56/90/206
