# This file uses centimeters as units for non-parametric coordinates.

mtllib platform_NH.mtl
g default
v 0.000003 -0.588425 -13.666412
v -0.000001 -0.892624 -13.265968
v -11.835464 -0.588425 -6.833214
v -11.488663 -0.892624 -6.632988
v -11.835464 -0.588425 6.833206
v -11.488670 -0.892624 6.632984
v -0.000003 -0.588425 13.666412
v 0.000001 -0.892624 13.265968
v 11.835464 -0.588425 6.833206
v 11.488670 -0.892624 6.632984
v 11.835464 -0.588425 -6.833206
v 11.488670 -0.892624 -6.632984
v 0.000003 0.706992 -14.045334
v -0.000001 0.900553 -13.810036
v -12.163620 0.706992 -7.022671
v -11.959839 0.900553 -6.905022
v -12.163620 0.706992 7.022663
v -11.959846 0.900553 6.905018
v -0.000003 0.706992 14.045334
v 0.000001 0.900553 13.810036
v 12.163620 0.706992 7.022667
v 11.959846 0.900553 6.905018
v 12.163620 0.706992 -7.022667
v 11.959846 0.900553 -6.905018
v 0.000002 0.218107 -14.045334
v -12.163620 0.218107 -7.022671
v -12.163620 0.218107 7.022663
v -0.000004 0.218107 14.045326
v 12.163620 0.218107 7.022667
v 12.163620 0.218107 -7.022667
v 0.000003 -0.212820 -14.045334
v -12.163620 -0.212820 -7.022671
v -12.163620 -0.212820 7.022663
v -0.000003 -0.212820 14.045334
v 12.163620 -0.212820 7.022667
v 12.163620 -0.212820 -7.022667
v 0.000001 -0.212820 -13.735107
v -11.894951 -0.212820 -6.867550
v -11.894951 0.218107 -6.867550
v 0.000001 0.218107 -13.735107
v -11.894951 -0.212820 6.867550
v -11.894951 0.218107 6.867550
v -0.000001 -0.212820 13.735107
v -0.000002 0.218107 13.735100
v 11.894943 -0.212820 6.867546
v 11.894943 0.218107 6.867546
v 11.894943 -0.212820 -6.867558
v 11.894951 0.218107 -6.867558
v 0.000000 -0.892618 -0.000001
v 0.000000 0.900535 -0.000001
v 10.897221 -0.892612 -6.291512
v -0.000001 -0.892611 -12.583023
v -10.897217 -0.892612 -6.291515
v -10.897221 -0.892611 6.291512
v 0.000001 -0.892607 12.583023
v 10.897221 -0.892607 6.291512
vt 0.756166 0.010878
vt 0.756166 0.019272
vt 0.522369 0.158304
vt 0.515312 0.154108
vt 0.997020 0.154108
vt 0.989962 0.158305
vt 0.522369 0.436370
vt 0.515312 0.440567
vt 0.756166 0.575403
vt 0.756166 0.583797
vt 0.989962 0.436370
vt 0.997020 0.440567
vt 0.255505 0.002936
vt 0.255505 0.007867
vt 0.498890 0.152602
vt 0.503037 0.150136
vt 0.007973 0.150136
vt 0.012120 0.152602
vt 0.007973 0.444538
vt 0.012120 0.442072
vt 0.255505 0.591739
vt 0.255505 0.586807
vt 0.503037 0.444538
vt 0.498890 0.442072
vt 0.831353 0.596958
vt 0.997030 0.596958
vt 0.997030 0.606028
vt 0.831353 0.606028
vt 0.002970 0.596958
vt 0.168646 0.596958
vt 0.168646 0.606028
vt 0.002970 0.606028
vt 0.334323 0.596958
vt 0.334323 0.606028
vt 0.500000 0.596958
vt 0.500000 0.606028
vt 0.665677 0.596958
vt 0.665677 0.606028
vt 0.831353 0.631971
vt 0.997030 0.631971
vt 0.997030 0.639643
vt 0.831353 0.639643
vt 0.002970 0.631971
vt 0.168646 0.631971
vt 0.168646 0.639643
vt 0.002970 0.639643
vt 0.334323 0.631971
vt 0.334323 0.639643
vt 0.500000 0.631971
vt 0.500000 0.639643
vt 0.665677 0.631971
vt 0.665677 0.639643
vt 0.831353 0.614178
vt 0.997030 0.614178
vt 0.997030 0.623248
vt 0.831353 0.623248
vt 0.002970 0.614178
vt 0.168646 0.614178
vt 0.168646 0.623248
vt 0.002970 0.623248
vt 0.334323 0.614178
vt 0.334323 0.623248
vt 0.500000 0.614178
vt 0.500000 0.623248
vt 0.665677 0.614178
vt 0.665677 0.623248
vt 0.736496 0.906927
vt 0.593874 0.992132
vt 0.593874 0.996642
vt 0.740270 0.909182
vt 0.287395 0.992132
vt 0.430016 0.906927
vt 0.433790 0.909182
vt 0.287395 0.996642
vt 0.451253 0.906927
vt 0.447479 0.909182
vt 0.144773 0.906927
vt 0.140999 0.909182
vt 0.451253 0.736517
vt 0.447479 0.734262
vt 0.144773 0.736517
vt 0.140999 0.734262
vt 0.593874 0.651312
vt 0.593874 0.646802
vt 0.287394 0.651312
vt 0.287394 0.646803
vt 0.736496 0.736517
vt 0.740270 0.734262
vt 0.430016 0.736517
vt 0.433790 0.734262
vt 0.756166 0.033587
vt 0.534405 0.165462
vt 0.977926 0.165462
vt 0.534405 0.429213
vt 0.756166 0.561088
vt 0.977926 0.429213
vt 0.255505 0.297337
vt 0.756166 0.297337
vn -0.360845 -0.692216 -0.625003
vn -0.212746 -0.904962 -0.368487
vn -0.212745 -0.904963 -0.368486
vn -0.360845 -0.692216 -0.625003
vn 0.212745 -0.904963 -0.368485
vn 0.360845 -0.692217 -0.625002
vn 0.360845 -0.692216 -0.625002
vn 0.212745 -0.904963 -0.368486
vn -0.721690 -0.692217 0.000000
vn -0.425490 -0.904963 0.000000
vn -0.425490 -0.904963 0.000000
vn -0.721690 -0.692217 0.000000
vn -0.360845 -0.692216 0.625002
vn -0.212745 -0.904964 0.368484
vn -0.212744 -0.904964 0.368484
vn -0.360845 -0.692217 0.625002
vn 0.360845 -0.692216 0.625003
vn 0.212745 -0.904963 0.368485
vn 0.212745 -0.904963 0.368485
vn 0.360845 -0.692216 0.625003
vn 0.721689 -0.692217 0.000000
vn 0.425489 -0.904964 0.000000
vn 0.425489 -0.904964 0.000000
vn 0.721689 -0.692217 0.000000
vn 0.486316 0.232350 -0.842324
vn 0.000000 0.998758 -0.049825
vn 0.043149 0.998758 -0.024912
vn 0.486316 0.232348 -0.842325
vn 0.000000 0.998758 -0.049825
vn -0.486316 0.232346 -0.842325
vn -0.486316 0.232347 -0.842325
vn -0.043149 0.998758 -0.024912
vn -0.043149 0.998758 -0.024912
vn -0.972632 0.232351 0.000000
vn -0.972632 0.232351 0.000000
vn -0.043149 0.998758 0.024912
vn -0.043149 0.998758 0.024912
vn -0.486316 0.232348 0.842325
vn -0.486316 0.232350 0.842324
vn 0.000000 0.998758 0.049825
vn 0.000000 0.998758 0.049825
vn 0.486316 0.232345 0.842326
vn 0.486316 0.232346 0.842325
vn 0.043149 0.998758 0.024912
vn 0.043149 0.998758 0.024912
vn 0.972632 0.232351 0.000000
vn 0.972632 0.232351 0.000000
vn 0.043149 0.998758 -0.024912
vn -0.500000 -0.000001 -0.866026
vn -0.500000 -0.000001 -0.866026
vn -0.486316 0.232347 -0.842325
vn -0.486316 0.232346 -0.842325
vn -1.000000 0.000000 0.000000
vn -1.000000 0.000000 0.000000
vn -0.972632 0.232351 0.000000
vn -0.972632 0.232351 0.000000
vn -0.500000 -0.000002 0.866025
vn -0.500000 -0.000002 0.866025
vn -0.486316 0.232350 0.842324
vn -0.486316 0.232348 0.842325
vn 0.500000 -0.000001 0.866026
vn 0.499999 -0.000001 0.866026
vn 0.486316 0.232346 0.842325
vn 0.486316 0.232345 0.842326
vn 1.000000 0.000001 0.000000
vn 1.000000 0.000001 0.000000
vn 0.972632 0.232351 0.000000
vn 0.972632 0.232351 0.000000
vn 0.500000 -0.000001 -0.866026
vn 0.500000 -0.000001 -0.866025
vn 0.486316 0.232350 -0.842324
vn 0.486316 0.232348 -0.842325
vn -0.500000 0.000000 -0.866025
vn -0.500000 0.000000 -0.866025
vn -0.500000 0.000000 -0.866025
vn -0.500000 0.000000 -0.866025
vn -1.000000 0.000000 0.000000
vn -1.000000 0.000000 0.000000
vn -1.000000 0.000000 0.000000
vn -1.000000 0.000000 0.000000
vn -0.500000 0.000001 0.866025
vn -0.500000 0.000001 0.866025
vn -0.500000 0.000001 0.866025
vn -0.500000 0.000001 0.866025
vn 0.500000 0.000002 0.866025
vn 0.500000 0.000002 0.866025
vn 0.500000 0.000002 0.866025
vn 0.500000 0.000002 0.866025
vn 1.000000 -0.000004 0.000000
vn 1.000000 -0.000004 0.000000
vn 1.000000 -0.000004 0.000000
vn 1.000000 -0.000004 0.000000
vn 0.500000 0.000000 -0.866025
vn 0.500000 0.000000 -0.866025
vn 0.500000 0.000000 -0.866025
vn 0.500000 0.000000 -0.866025
vn -0.360845 -0.692216 -0.625003
vn -0.360845 -0.692216 -0.625003
vn -0.376537 -0.657935 -0.652182
vn -0.376537 -0.657935 -0.652182
vn -0.721690 -0.692217 0.000000
vn -0.721690 -0.692217 0.000000
vn -0.753074 -0.657936 0.000000
vn -0.753074 -0.657936 0.000000
vn -0.360845 -0.692216 0.625002
vn -0.360845 -0.692217 0.625002
vn -0.376537 -0.657935 0.652182
vn -0.376537 -0.657935 0.652182
vn 0.360845 -0.692216 0.625003
vn 0.360845 -0.692216 0.625003
vn 0.376537 -0.657935 0.652182
vn 0.376537 -0.657935 0.652182
vn 0.721689 -0.692217 0.000000
vn 0.721689 -0.692217 0.000000
vn 0.753074 -0.657936 0.000000
vn 0.753074 -0.657936 0.000000
vn 0.360845 -0.692216 -0.625002
vn 0.360845 -0.692217 -0.625002
vn 0.376537 -0.657935 -0.652182
vn 0.376537 -0.657935 -0.652182
vn 0.000000 1.000000 0.000000
vn 0.000000 1.000000 0.000000
vn 0.000000 1.000000 0.000000
vn 0.000000 1.000000 0.000000
vn 0.000000 -1.000000 0.000000
vn 0.000000 -1.000000 0.000000
vn 0.000000 -1.000000 0.000000
vn 0.000000 -1.000000 0.000000
vn 0.000000 1.000000 0.000000
vn 0.000000 1.000000 0.000000
vn 0.000000 1.000000 0.000000
vn 0.000000 1.000000 0.000000
vn 0.000000 -1.000000 0.000000
vn 0.000000 -1.000000 0.000000
vn 0.000000 -1.000000 0.000000
vn 0.000000 -1.000000 0.000000
vn 0.000000 1.000000 0.000000
vn 0.000000 1.000000 0.000000
vn 0.000000 1.000000 0.000000
vn 0.000000 1.000000 0.000000
vn 0.000000 -1.000000 0.000000
vn 0.000000 -1.000000 0.000000
vn 0.000000 -1.000000 0.000000
vn 0.000000 -1.000000 0.000000
vn 0.000000 1.000000 0.000000
vn 0.000000 1.000000 0.000000
vn 0.000000 1.000000 0.000000
vn 0.000000 1.000000 0.000000
vn 0.000000 -1.000000 0.000000
vn 0.000000 -1.000000 0.000000
vn 0.000000 -1.000000 0.000000
vn 0.000000 -1.000000 0.000000
vn 0.000000 1.000000 0.000000
vn 0.000000 1.000000 0.000000
vn 0.000000 1.000000 0.000000
vn 0.000000 1.000000 0.000000
vn 0.000000 -1.000000 0.000000
vn 0.000000 -1.000000 0.000000
vn 0.000000 -1.000000 0.000000
vn 0.000000 -1.000000 0.000000
vn 0.000000 1.000000 0.000000
vn 0.000000 1.000000 0.000000
vn 0.000000 1.000000 0.000000
vn 0.000000 1.000000 0.000000
vn 0.000000 -1.000000 0.000000
vn 0.000000 -1.000000 0.000000
vn 0.000000 -1.000000 0.000000
vn 0.000000 -1.000000 0.000000
vn -0.212745 -0.904963 -0.368486
vn -0.212746 -0.904962 -0.368487
vn 0.000000 -1.000000 0.000003
vn 0.000003 -1.000000 0.000002
vn 0.212745 -0.904963 -0.368485
vn 0.212745 -0.904963 -0.368486
vn -0.000003 -1.000000 0.000002
vn 0.000000 -1.000000 0.000003
vn -0.425490 -0.904963 0.000000
vn -0.425490 -0.904963 0.000000
vn 0.000003 -1.000000 0.000002
vn 0.000003 -1.000000 -0.000002
vn -0.212744 -0.904964 0.368484
vn -0.212745 -0.904964 0.368484
vn 0.000003 -1.000000 -0.000002
vn 0.000000 -1.000000 -0.000004
vn 0.212745 -0.904963 0.368485
vn 0.212745 -0.904963 0.368485
vn 0.000000 -1.000000 -0.000004
vn -0.000003 -1.000000 -0.000002
vn 0.425489 -0.904964 0.000000
vn 0.425489 -0.904964 0.000000
vn -0.000003 -1.000000 -0.000002
vn -0.000003 -1.000000 0.000002
vn 0.043149 0.998758 -0.024912
vn 0.000000 0.998758 -0.049825
vn 0.000000 1.000000 0.000000
vn 0.000000 0.998758 -0.049825
vn -0.043149 0.998758 -0.024912
vn 0.000000 1.000000 0.000000
vn -0.043149 0.998758 -0.024912
vn -0.043149 0.998758 0.024912
vn 0.000000 1.000000 0.000000
vn -0.043149 0.998758 0.024912
vn 0.000000 0.998758 0.049825
vn 0.000000 1.000000 0.000000
vn 0.000000 0.998758 0.049825
vn 0.043149 0.998758 0.024912
vn 0.000000 1.000000 0.000000
vn 0.043149 0.998758 0.024912
vn 0.043149 0.998758 -0.024912
vn 0.000000 1.000000 0.000000
vn 0.000000 -1.000000 0.000003
vn -0.000003 -1.000000 0.000002
vn 0.000000 -1.000000 0.000000
vn 0.000003 -1.000000 0.000002
vn 0.000000 -1.000000 0.000003
vn 0.000000 -1.000000 0.000000
vn 0.000003 -1.000000 -0.000002
vn 0.000003 -1.000000 0.000002
vn 0.000000 -1.000000 0.000000
vn 0.000000 -1.000000 -0.000004
vn 0.000003 -1.000000 -0.000002
vn 0.000000 -1.000000 0.000000
vn -0.000003 -1.000000 -0.000002
vn 0.000000 -1.000000 -0.000004
vn 0.000000 -1.000000 0.000000
vn -0.000003 -1.000000 0.000002
vn -0.000003 -1.000000 -0.000002
vn 0.000000 -1.000000 0.000000
s off
g platform_NH1
usemtl initialShadingGroup
f 1/1/1 2/2/2 4/3/3 3/4/4
f 2/2/5 1/1/6 11/5/7 12/6/8
f 3/4/9 4/3/10 6/7/11 5/8/12
f 5/8/13 6/7/14 8/9/15 7/10/16
f 7/10/17 8/9/18 10/11/19 9/12/20
f 9/12/21 10/11/22 12/6/23 11/5/24
f 13/13/25 14/14/26 24/15/27 23/16/28
f 14/14/29 13/13/30 15/17/31 16/18/32
f 16/18/33 15/17/34 17/19/35 18/20/36
f 18/20/37 17/19/38 19/21/39 20/22/40
f 20/22/41 19/21/42 21/23/43 22/24/44
f 22/24/45 21/23/46 23/16/47 24/15/48
f 25/25/49 26/26/50 15/27/51 13/28/52
f 26/29/53 27/30/54 17/31/55 15/32/56
f 27/30/57 28/33/58 19/34/59 17/31/60
f 28/33/61 29/35/62 21/36/63 19/34/64
f 29/35/65 30/37/66 23/38/67 21/36/68
f 30/37/69 25/25/70 13/28/71 23/38/72
f 37/39/73 38/40/74 39/41/75 40/42/76
f 38/43/77 41/44/78 42/45/79 39/46/80
f 41/44/81 43/47/82 44/48/83 42/45/84
f 43/47/85 45/49/86 46/50/87 44/48/88
f 45/49/89 47/51/90 48/52/91 46/50/92
f 47/51/93 37/39/94 40/42/95 48/52/96
f 1/53/97 3/54/98 32/55/99 31/56/100
f 3/57/101 5/58/102 33/59/103 32/60/104
f 5/58/105 7/61/106 34/62/107 33/59/108
f 7/61/109 9/63/110 35/64/111 34/62/112
f 9/63/113 11/65/114 36/66/115 35/64/116
f 11/65/117 1/53/118 31/56/119 36/66/120
f 31/67/121 32/68/122 38/69/123 37/70/124
f 26/71/125 25/72/126 40/73/127 39/74/128
f 32/68/129 33/75/130 41/76/131 38/69/132
f 27/77/133 26/71/134 39/74/135 42/78/136
f 33/75/137 34/79/138 43/80/139 41/76/140
f 28/81/141 27/77/142 42/78/143 44/82/144
f 34/79/145 35/83/146 45/84/147 43/80/148
f 29/85/149 28/81/150 44/82/151 46/86/152
f 35/83/153 36/87/154 47/88/155 45/84/156
f 30/89/157 29/85/158 46/86/159 48/90/160
f 36/87/161 31/67/162 37/70/163 47/88/164
f 25/72/165 30/89/166 48/90/167 40/73/168
f 4/3/169 2/2/170 52/91/171 53/92/172
f 2/2/173 12/6/174 51/93/175 52/91/176
f 6/7/177 4/3/178 53/92/179 54/94/180
f 8/9/181 6/7/182 54/94/183 55/95/184
f 10/11/185 8/9/186 55/95/187 56/96/188
f 12/6/189 10/11/190 56/96/191 51/93/192
f 24/15/193 14/14/194 50/97/195
f 14/14/196 16/18/197 50/97/198
f 16/18/199 18/20/200 50/97/201
f 18/20/202 20/22/203 50/97/204
f 20/22/205 22/24/206 50/97/207
f 22/24/208 24/15/209 50/97/210
f 52/91/211 51/93/212 49/98/213
f 53/92/214 52/91/215 49/98/216
f 54/94/217 53/92/218 49/98/219
f 55/95/220 54/94/221 49/98/222
f 56/96/223 55/95/224 49/98/225
f 51/93/226 56/96/227 49/98/228
