# This file uses centimeters as units for non-parametric coordinates.

mtllib checkpoint.mtl
g default
v -0.880446 -5.447088 3.144879
v -1.760717 -4.566817 2.636655
v -0.880446 -5.447090 -3.144877
v -1.760717 -4.566819 -2.636653
v -0.880446 -0.000001 -6.289756
v -1.760717 -0.000001 -5.273307
v -0.880446 5.447088 -3.144878
v -1.760717 4.566818 -2.636654
v -0.880446 5.447088 3.144878
v -1.760717 4.566818 2.636653
v -0.880446 0.000000 6.289756
v -1.760717 -0.000000 5.273307
v 0.880446 -5.447088 3.144879
v 1.760717 -4.566817 2.636655
v 0.880446 -5.447089 -3.144877
v 1.760717 -4.566819 -2.636653
v 0.880446 -0.000001 -6.289756
v 1.760717 -0.000001 -5.273307
v 0.880446 5.447088 -3.144878
v 1.760717 4.566818 -2.636654
v 0.880446 5.447089 3.144878
v 1.760717 4.566818 2.636653
v 0.880446 0.000000 6.289756
v 1.760717 -0.000000 5.273307
v 0.000000 -4.071852 2.350886
v 0.000000 -4.071854 -2.350885
v 0.000000 -0.000000 4.701770
v 0.000000 -0.000001 -4.701770
v 0.000000 4.071853 -2.350886
v 0.000000 4.071853 2.350885
vt 0.006335 0.477624
vt 0.617672 0.016362
vt 0.637933 0.052304
vt 0.848162 0.052304
vt 0.868423 0.016362
vt 0.492296 0.238774
vt 0.532819 0.238774
vt 0.953276 0.238774
vt 0.993798 0.238774
vt 0.848162 0.425243
vt 0.868423 0.461186
vt 0.637933 0.425243
vt 0.617672 0.461186
vt 0.993665 0.523316
vt 0.129712 0.531826
vt 0.149974 0.567768
vt 0.044859 0.754238
vt 0.004337 0.754238
vt 0.380463 0.531826
vt 0.360202 0.567768
vt 0.505839 0.754238
vt 0.465317 0.754238
vt 0.380464 0.976649
vt 0.360202 0.940707
vt 0.129712 0.976649
vt 0.149974 0.940707
vt 0.170890 0.477624
vt 0.006335 0.523316
vt 0.335445 0.477624
vt 0.170890 0.523316
vt 0.500000 0.477624
vt 0.335445 0.523316
vt 0.664555 0.477624
vt 0.500000 0.523316
vt 0.829110 0.477624
vt 0.664555 0.523316
vt 0.993665 0.477624
vt 0.829110 0.523316
vt 0.649326 0.072515
vt 0.836769 0.072515
vt 0.555604 0.238774
vt 0.930491 0.238774
vt 0.836769 0.405033
vt 0.649326 0.405033
vt 0.161366 0.920497
vt 0.348810 0.920497
vt 0.442531 0.754238
vt 0.348810 0.587978
vt 0.067644 0.754238
vt 0.161366 0.587978
vn -0.707107 -0.707107 0.000000
vn -0.707107 -0.707107 0.000000
vn -0.707107 -0.707107 0.000000
vn -0.707107 -0.707107 0.000000
vn -0.707107 -0.353553 0.612372
vn -0.707107 -0.353553 0.612372
vn -0.707107 -0.353553 0.612372
vn -0.707107 -0.353553 0.612372
vn -0.707107 -0.353553 -0.612372
vn -0.707107 -0.353553 -0.612372
vn -0.707107 -0.353553 -0.612372
vn -0.707107 -0.353553 -0.612372
vn -0.707106 0.353553 -0.612373
vn -0.707107 0.353553 -0.612373
vn -0.707106 0.353553 -0.612373
vn -0.707107 0.353553 -0.612373
vn -0.707107 0.707107 0.000000
vn -0.707107 0.707107 0.000000
vn -0.707107 0.707107 0.000000
vn -0.707107 0.707107 0.000000
vn -0.707107 0.353553 0.612372
vn -0.707107 0.353553 0.612372
vn -0.707107 0.353553 0.612372
vn -0.707107 0.353553 0.612372
vn 0.707107 -0.353553 0.612372
vn 0.707107 -0.353553 0.612372
vn 0.707107 -0.353553 0.612372
vn 0.707107 -0.353553 0.612372
vn 0.707107 -0.707107 0.000000
vn 0.707107 -0.707107 0.000000
vn 0.707107 -0.707107 0.000000
vn 0.707107 -0.707107 0.000000
vn 0.707107 -0.353553 -0.612372
vn 0.707107 -0.353553 -0.612372
vn 0.707107 -0.353553 -0.612372
vn 0.707107 -0.353553 -0.612372
vn 0.707107 0.353553 -0.612373
vn 0.707106 0.353553 -0.612373
vn 0.707106 0.353553 -0.612373
vn 0.707106 0.353553 -0.612373
vn 0.707107 0.707107 0.000000
vn 0.707107 0.707107 0.000000
vn 0.707107 0.707107 0.000000
vn 0.707107 0.707107 0.000000
vn 0.707107 0.353553 0.612372
vn 0.707107 0.353553 0.612372
vn 0.707107 0.353553 0.612372
vn 0.707107 0.353553 0.612372
vn 0.000000 -1.000000 0.000000
vn 0.000000 -1.000000 0.000000
vn 0.000000 -1.000000 0.000000
vn 0.000000 -1.000000 0.000000
vn 0.000000 -0.500000 -0.866025
vn 0.000000 -0.500000 -0.866025
vn 0.000000 -0.500000 -0.866025
vn 0.000000 -0.500000 -0.866025
vn 0.000000 0.500000 -0.866025
vn 0.000000 0.500000 -0.866025
vn 0.000000 0.500000 -0.866025
vn 0.000000 0.500000 -0.866025
vn -0.000000 1.000000 0.000000
vn -0.000000 1.000000 0.000000
vn -0.000000 1.000000 0.000000
vn -0.000000 1.000000 0.000000
vn -0.000000 0.500000 0.866025
vn -0.000000 0.500000 0.866025
vn -0.000000 0.500000 0.866025
vn -0.000000 0.500000 0.866025
vn 0.000000 -0.500000 0.866026
vn 0.000000 -0.500000 0.866026
vn 0.000000 -0.500000 0.866026
vn 0.000000 -0.500000 0.866026
vn -0.270626 0.962685 -0.000000
vn -0.270626 0.962685 -0.000000
vn -0.270626 0.962685 -0.000000
vn -0.270626 0.962685 -0.000000
vn -0.270626 0.481342 -0.833709
vn -0.270626 0.481342 -0.833709
vn -0.270626 0.481342 -0.833709
vn -0.270626 0.481342 -0.833709
vn -0.270626 0.481342 0.833709
vn -0.270626 0.481342 0.833709
vn -0.270626 0.481342 0.833709
vn -0.270626 0.481342 0.833709
vn -0.270626 -0.481342 0.833709
vn -0.270626 -0.481342 0.833709
vn -0.270626 -0.481342 0.833709
vn -0.270626 -0.481342 0.833709
vn -0.270626 -0.962685 0.000000
vn -0.270626 -0.962685 0.000000
vn -0.270626 -0.962685 0.000000
vn -0.270626 -0.962685 0.000000
vn -0.270626 -0.481342 -0.833709
vn -0.270626 -0.481342 -0.833709
vn -0.270626 -0.481342 -0.833709
vn -0.270626 -0.481342 -0.833709
vn 0.270626 0.481342 -0.833709
vn 0.270626 0.481342 -0.833709
vn 0.270626 0.481342 -0.833709
vn 0.270626 0.481342 -0.833709
vn 0.270626 0.962685 -0.000000
vn 0.270626 0.962685 -0.000000
vn 0.270626 0.962685 -0.000000
vn 0.270626 0.962685 -0.000000
vn 0.270626 0.481342 0.833709
vn 0.270626 0.481342 0.833709
vn 0.270626 0.481342 0.833709
vn 0.270626 0.481342 0.833709
vn 0.270626 -0.481342 0.833709
vn 0.270626 -0.481342 0.833710
vn 0.270626 -0.481342 0.833709
vn 0.270626 -0.481342 0.833710
vn 0.270626 -0.962685 0.000000
vn 0.270626 -0.962685 0.000000
vn 0.270626 -0.962685 0.000000
vn 0.270626 -0.962685 0.000000
vn 0.270626 -0.481342 -0.833709
vn 0.270626 -0.481342 -0.833709
vn 0.270626 -0.481342 -0.833709
vn 0.270626 -0.481342 -0.833709
s off
g checkpoint_default
usemtl checkpoint_defaultSG
f 1/2/1 2/3/2 4/4/3 3/5/4
f 2/3/5 1/2/6 11/6/7 12/7/8
f 3/5/9 4/4/10 6/8/11 5/9/12
f 5/9/13 6/8/14 8/10/15 7/11/16
f 7/11/17 8/10/18 10/12/19 9/13/20
f 9/13/21 10/12/22 12/7/23 11/6/24
f 13/15/25 14/16/26 24/17/27 23/18/28
f 14/16/29 13/15/30 15/19/31 16/20/32
f 16/20/33 15/19/34 17/21/35 18/22/36
f 18/22/37 17/21/38 19/23/39 20/24/40
f 20/24/41 19/23/42 21/25/43 22/26/44
f 22/26/45 21/25/46 23/18/47 24/17/48
f 1/1/49 3/27/50 15/30/51 13/28/52
f 3/27/53 5/29/54 17/32/55 15/30/56
f 5/29/57 7/31/58 19/34/59 17/32/60
f 7/31/61 9/33/62 21/36/63 19/34/64
f 9/33/65 11/35/66 23/38/67 21/36/68
f 11/35/69 1/37/70 13/14/71 23/38/72
f 4/4/73 2/3/74 25/39/75 26/40/76
f 2/3/77 12/7/78 27/41/79 25/39/80
f 6/8/81 4/4/82 26/40/83 28/42/84
f 8/10/85 6/8/86 28/42/87 29/43/88
f 10/12/89 8/10/90 29/43/91 30/44/92
f 12/7/93 10/12/94 30/44/95 27/41/96
f 24/17/97 14/16/98 25/50/99 27/49/100
f 14/16/101 16/20/102 26/48/103 25/50/104
f 16/20/105 18/22/106 28/47/107 26/48/108
f 18/22/109 20/24/110 29/46/111 28/47/112
f 20/24/113 22/26/114 30/45/115 29/46/116
f 22/26/117 24/17/118 27/49/119 30/45/120
